# xmcd
#
# Track frame offsets: 
#        150
#        22011
#        47810
#        64183
#        77686
#        93512
#        116993
#        135699
#        177190
#        195914
#        216343
#        232909
#        256232
#
# Disc length: 3660 seconds
#
# Revision: 3
# Processed by: cddbd v1.5.2PL0 Copyright (c) Steve Scherf et al.
# Submitted via: ExactAudioCopy v0.99pb4
#
DISCID=b30e4a0d
DTITLE=Big Blues Revival - Blues in Use
DYEAR=1900
DGENRE=Blues
TTITLE0=Smoke On The Water
TTITLE1=Bring It On Home
TTITLE2=Rollin' And Tumblin'
TTITLE3=I Want To Be Loved
TTITLE4=That's All Right
TTITLE5=Sittin' On Top Of The World
TTITLE6=Oh Pretty Woman
TTITLE7=I'm Your Hoochie Coochie Man
TTITLE8=Babe Please Don't Go
TTITLE9=Louisiana Blues
TTITLE10=I Can't Be Satisfied
TTITLE11=I Wish You Would
TTITLE12=Harp and Harp
EXTD=
EXTT0=
EXTT1=
EXTT2=
EXTT3=
EXTT4=
EXTT5=
EXTT6=
EXTT7=
EXTT8=
EXTT9=
EXTT10=
EXTT11=
EXTT12=
PLAYORDER=
